<?xml version="1.0" encoding="UTF-8"?>
<svg width="512" height="512" viewBox="0 0 512 512" fill="none" xmlns="http://www.w3.org/2000/svg">
  <!-- Background Circle -->
  <circle cx="256" cy="256" r="240" fill="url(#gradient)" />
  
  <!-- Echo Symbol -->
  <path d="M256 96C167.6 96 96 167.6 96 256C96 344.4 167.6 416 256 416C344.4 416 416 344.4 416 256C416 167.6 344.4 96 256 96ZM256 384C181.3 384 128 330.7 128 256C128 181.3 181.3 128 256 128C330.7 128 384 181.3 384 256C384 330.7 330.7 384 256 384Z" fill="white"/>
  
  <!-- Wave Pattern -->
  <path d="M256 160C203.2 160 160 203.2 160 256C160 308.8 203.2 352 256 352C308.8 352 352 308.8 352 256C352 203.2 308.8 160 256 160Z" fill="white" fill-opacity="0.8"/>
  
  <!-- Center Dot -->
  <circle cx="256" cy="256" r="32" fill="white"/>
  
  <!-- Gradient Definition -->
  <defs>
    <linearGradient id="gradient" x1="0" y1="0" x2="512" y2="512" gradientUnits="userSpaceOnUse">
      <stop offset="0%" stop-color="#3B82F6"/>
      <stop offset="100%" stop-color="#6366F1"/>
    </linearGradient>
  </defs>
</svg> 